  <svg xmlns="http://www.w3.org/2000/svg" width="150" height="105.966" viewBox="0 0 39.6875 28.036835"><path d="M5.45 22.577A16.488 13.722 45 0 1 .136 8.16a16.488 13.722 45 0 1 14.405 5.324 16.488 13.722 45 0 1 5.313 14.42A16.488 13.722 45 0 1 5.45 22.576z" opacity=".5" fill="#a05a2c"/><path d="M18.438 12.61A16.488 13.722 60 0 0 5.885 3.748 16.488 13.722 60 0 0 7.3 19.04a16.488 13.722 60 0 0 12.554 8.863 16.488 13.722 60 0 0-1.416-15.293z" opacity=".5" fill="#a05a2c"/><path d="M22.444 12.765a16.488 13.722 75 0 0-9.83-11.81 16.488 13.722 75 0 0-2.592 15.14 16.488 13.722 75 0 0 9.832 11.808 16.488 13.722 75 0 0 2.59-15.138z" opacity=".5" fill="#a05a2c"/><path d="M26.274 13.95A13.722 16.488 0 0 0 19.834 0a13.722 16.488 0 0 0-6.42 13.95 13.722 16.488 0 0 0 6.44 13.953 13.722 16.488 0 0 0 6.42-13.952z" opacity=".5" fill="#a05a2c"/><path d="M17.243 12.765A13.722 16.488 15 0 1 27.075.955a13.722 16.488 15 0 1 2.59 15.14 13.722 16.488 15 0 1-9.83 11.808 13.722 16.488 15 0 1-2.592-15.138z" opacity=".5" fill="#a05a2c"/><path d="M21.25 12.61A13.722 16.488 30 0 1 33.8 3.748a13.722 16.488 30 0 1-1.415 15.293 13.722 16.488 30 0 1-12.553 8.864A13.722 16.488 30 0 1 21.25 12.61z" opacity=".5" fill="#a05a2c"/><path d="M34.24 22.577A13.722 16.488 45 0 0 39.55 8.16a13.722 16.488 45 0 0-14.405 5.324 13.722 16.488 45 0 0-5.31 14.42 13.722 16.488 45 0 0 14.404-5.327z" opacity=".5" fill="#a05a2c"/></svg>
