<?xml version="1.0" encoding="UTF-8" standalone="no"?>
<svg
   xmlns:dc="http://purl.org/dc/elements/1.1/"
   xmlns:cc="http://creativecommons.org/ns#"
   xmlns:rdf="http://www.w3.org/1999/02/22-rdf-syntax-ns#"
   xmlns:svg="http://www.w3.org/2000/svg"
   xmlns="http://www.w3.org/2000/svg"
   xmlns:sodipodi="http://sodipodi.sourceforge.net/DTD/sodipodi-0.dtd"
   xmlns:inkscape="http://www.inkscape.org/namespaces/inkscape"
   width="506.83493"
   height="250.00085"
   viewBox="0 0 134.09998 66.146194"
   version="1.1"
   id="svg7943"
   sodipodi:docname="logo.svg"
   inkscape:version="0.92.0 r15299">
  <metadata
     id="metadata7949">
    <rdf:RDF>
      <cc:Work
         rdf:about="">
        <dc:format>image/svg+xml</dc:format>
        <dc:type
           rdf:resource="http://purl.org/dc/dcmitype/StillImage" />
        <dc:title></dc:title>
      </cc:Work>
    </rdf:RDF>
  </metadata>
  <defs
     id="defs7947" />
  <sodipodi:namedview
     pagecolor="#ffffff"
     bordercolor="#666666"
     borderopacity="1"
     objecttolerance="10"
     gridtolerance="10"
     guidetolerance="10"
     inkscape:pageopacity="0"
     inkscape:pageshadow="2"
     inkscape:window-width="1920"
     inkscape:window-height="1057"
     id="namedview7945"
     showgrid="false"
     inkscape:zoom="1.7684806"
     inkscape:cx="133.65846"
     inkscape:cy="214.79461"
     inkscape:window-x="-8"
     inkscape:window-y="-8"
     inkscape:window-maximized="1"
     inkscape:current-layer="svg7943"
     showborder="false"
     fit-margin-top="0"
     fit-margin-left="0"
     fit-margin-right="0"
     fit-margin-bottom="0" />
  <g
     id="g7990"
     transform="matrix(0.70558778,0,0,1,33.358049,33.843997)">
    <path
       id="rect7962"
       transform="matrix(0.26458387,0,0,0.26458387,-1.5164524e-4,0)"
       d="M -53.683594,-127.91406 -178.68359,-2.9140625 -53.683594,122.08594 H 414.63086 l 125,-125.0000025 -125,-124.9999975 z"
       style="opacity:1;fill:#ff9955;fill-opacity:1;fill-rule:nonzero;stroke:none;stroke-width:7.71782923;stroke-linejoin:round;stroke-miterlimit:4;stroke-dasharray:none;stroke-opacity:1"
       inkscape:connector-curvature="0" />
    <path
       sodipodi:nodetypes="cccc"
       inkscape:connector-curvature="0"
       id="rect7964"
       d="m -47.27718,32.302197 h 33.072983 L -47.27718,-0.7707865 Z"
       style="opacity:1;fill:#ff2a2a;fill-opacity:1;fill-rule:nonzero;stroke:none;stroke-width:1.32742858;stroke-linejoin:round;stroke-miterlimit:4;stroke-dasharray:none;stroke-opacity:1" />
    <path
       style="opacity:1;fill:#ff2a2a;fill-opacity:1;fill-rule:nonzero;stroke:none;stroke-width:1.32742858;stroke-linejoin:round;stroke-miterlimit:4;stroke-dasharray:none;stroke-opacity:1"
       d="m -47.27718,-33.843769 h 33.072984 L -47.27718,-0.77078657 Z"
       id="path7967"
       inkscape:connector-curvature="0"
       sodipodi:nodetypes="cccc" />
    <path
       sodipodi:nodetypes="cccc"
       inkscape:connector-curvature="0"
       id="path7969"
       d="m 142.77762,-33.843769 h -33.07299 l 33.07299,33.07298236 z"
       style="opacity:1;fill:#ff2a2a;fill-opacity:1;fill-rule:nonzero;stroke:none;stroke-width:1.32742858;stroke-linejoin:round;stroke-miterlimit:4;stroke-dasharray:none;stroke-opacity:1" />
    <path
       style="opacity:1;fill:#ff2a2a;fill-opacity:1;fill-rule:nonzero;stroke:none;stroke-width:1.32742858;stroke-linejoin:round;stroke-miterlimit:4;stroke-dasharray:none;stroke-opacity:1"
       d="M 142.77762,32.302197 H 109.70463 L 142.77762,-0.77078586 Z"
       id="path7971"
       inkscape:connector-curvature="0"
       sodipodi:nodetypes="cccc" />
  </g>
  <path
     style="fill:#000000;stroke-width:1"
     d="m 91.861724,3.306635 a 29.766,29.766 0 0 0 -24.805254,13.345983 29.766,29.766 0 0 0 -1.532727,2.587961 29.766,29.766 0 0 0 -1.080039,2.320276 29.766,29.766 0 0 0 -0.18397,0.409795 29.766,29.766 0 0 0 -0.767913,2.204004 29.766,29.766 0 0 0 -0.212908,0.639756 29.766,29.766 0 0 0 -0.485241,2.022103 29.766,29.766 0 0 0 -0.20619,0.913124 29.766,29.766 0 0 0 -0.109554,0.875917 29.766,29.766 0 0 0 -0.130225,0.930178 29.766,29.766 0 0 0 -0.23978,3.509871 19.844,19.844 0 0 1 -3.300062,10.939924 19.844,19.844 0 0 1 -1.139986,1.53996 19.844,19.844 0 0 1 -0.04031,0.05012 19.844,19.844 0 0 1 -1.239721,1.372013 19.844,19.844 0 0 1 -0.08992,0.100251 19.844,19.844 0 0 1 -1.309999,1.189595 19.844,19.844 0 0 1 -0.170017,0.150379 19.844,19.844 0 0 1 -1.330155,0.987538 19.844,19.844 0 0 1 -0.0098,0.0083 19.844,19.844 0 0 1 -0.130223,0.08992 19.844,19.844 0 0 1 -0.140044,0.100253 19.844,19.844 0 0 1 -1.335839,0.796853 19.844,19.844 0 0 1 -0.387057,0.220142 19.844,19.844 0 0 1 -1.339972,0.624769 19.844,19.844 0 0 1 -0.470258,0.209808 19.844,19.844 0 0 1 -1.292945,0.453203 19.844,19.844 0 0 1 -0.0098,0.0021 19.844,19.844 0 0 1 -0.274922,0.08992 19.844,19.844 0 0 1 -0.320392,0.104905 19.844,19.844 0 0 1 -1.22577,0.296106 19.844,19.844 0 0 1 -0.0052,0 19.844,19.844 0 0 1 -0.719853,0.160198 19.844,19.844 0 0 1 -1.139984,0.159679 19.844,19.844 0 0 1 -0.0072,0 19.844,19.844 0 0 1 -0.289905,0.04031 19.844,19.844 0 0 1 -0.559658,0.06976 19.844,19.844 0 0 1 -1.553396,0.07028 19.844,19.844 0 0 1 -19.868628,-19.825252 19.844,19.844 0 0 1 3.289729,-10.91977 19.844,19.844 0 0 1 0.01705,-0.02739 l -8.269796,-5.474611 a 29.766,29.766 0 0 0 -2.797251,5.319583 29.766,29.766 0 0 0 -0.769981,2.202971 29.766,29.766 0 0 0 -0.209806,0.640272 29.766,29.766 0 0 0 -0.140044,0.579811 29.766,29.766 0 0 0 -0.353984,1.470197 29.766,29.766 0 0 0 -0.686264,6.218753 29.766,29.766 0 0 0 0.140043,2.740409 29.766,29.766 0 0 0 0.01189,0.229961 29.766,29.766 0 0 0 0.19017,1.244888 29.766,29.766 0 0 0 0,0.0098 29.766,29.766 0 0 0 0.224276,1.45986 29.766,29.766 0 0 0 0.347783,1.450044 29.766,29.766 0 0 0 0,0.01033 29.766,29.766 0 0 0 0.367937,1.429891 29.766,29.766 0 0 0 0.489893,1.399918 29.766,29.766 0 0 0 0.0031,0.0098 29.766,29.766 0 0 0 0.510048,1.390097 29.766,29.766 0 0 0 0.626836,1.348243 29.766,29.766 0 0 0 0.650091,1.339972 29.766,29.766 0 0 0 1.399917,2.360067 29.766,29.766 0 0 0 24.804221,13.339781 29.766,29.766 0 0 0 24.803706,-13.345983 29.766,29.766 0 0 0 1.534277,-2.587961 29.766,29.766 0 0 0 1.080039,-2.31976 29.766,29.766 0 0 0 0.183968,-0.410312 29.766,29.766 0 0 0 0.767912,-2.209688 29.766,29.766 0 0 0 0.211874,-0.640272 29.766,29.766 0 0 0 0.486276,-2.020037 29.766,29.766 0 0 0 0.20464,-0.919841 29.766,29.766 0 0 0 0.120406,-0.880051 29.766,29.766 0 0 0 0.119891,-0.939998 29.766,29.766 0 0 0 0.239777,-3.509869 19.844,19.844 0 0 1 3.310399,-10.950258 19.844,19.844 0 0 1 1.139986,-1.54978 19.844,19.844 0 0 1 0.03979,-0.05994 19.844,19.844 0 0 1 1.240237,-1.380281 19.844,19.844 0 0 1 0.08992,-0.104903 19.844,19.844 0 0 1 1.31,-1.190111 19.844,19.844 0 0 1 0.159681,-0.145727 19.844,19.844 0 0 1 1.333254,-0.988056 19.844,19.844 0 0 1 0.0057,-0.01034 19.844,19.844 0 0 1 0.130223,-0.09353 19.844,19.844 0 0 1 0.140044,-0.100252 19.844,19.844 0 0 1 1.335839,-0.795819 19.844,19.844 0 0 1 0.390158,-0.220142 19.844,19.844 0 0 1 1.339972,-0.625803 19.844,19.844 0 0 1 0.46974,-0.210323 19.844,19.844 0 0 1 1.292431,-0.454754 19.844,19.844 0 0 1 0.0098,-0.01034 19.844,19.844 0 0 1 0.269751,-0.08992 19.844,19.844 0 0 1 0.320395,-0.102837 19.844,19.844 0 0 1 1.220081,-0.294039 19.844,19.844 0 0 1 0.0047,0 19.844,19.844 0 0 1 0.720372,-0.162781 19.844,19.844 0 0 1 1.139984,-0.160197 19.844,19.844 0 0 1 0.0057,0 19.844,19.844 0 0 1 0.289904,-0.03824 19.844,19.844 0 0 1 0.560175,-0.06976 19.844,19.844 0 0 1 1.552879,-0.06976 19.844,19.844 0 0 1 19.860325,19.869629 19.844,19.844 0 0 1 -3.29231,10.920286 19.844,19.844 0 0 1 -0.016,0.02584 l 8.27031,5.474097 a 29.766,29.766 0 0 0 1.52963,-2.59003 29.766,29.766 0 0 0 1.08004,-2.320276 29.766,29.766 0 0 0 0.19017,-0.409793 29.766,29.766 0 0 0 0.76016,-2.180234 29.766,29.766 0 0 0 0.21963,-0.669728 29.766,29.766 0 0 0 0.48007,-2.010219 29.766,29.766 0 0 0 0.21032,-0.919841 29.766,29.766 0 0 0 0.11989,-0.880051 29.766,29.766 0 0 0 0.12971,-0.939995 29.766,29.766 0 0 0 0.14521,-1.185979 29.766,29.766 0 0 0 0.0997,-2.319758 29.766,29.766 0 0 0 -0.13953,-2.740408 29.766,29.766 0 0 0 -0.19999,-1.475881 29.766,29.766 0 0 0 -0.003,-0.0041 29.766,29.766 0 0 0 -0.22014,-1.46193 29.766,29.766 0 0 0 -0.0351,-0.224792 29.766,29.766 0 0 0 -0.31471,-1.227835 29.766,29.766 0 0 0 -0.37,-1.430406 29.766,29.766 0 0 0 -0.49197,-1.409737 29.766,29.766 0 0 0 -0.51004,-1.394233 29.766,29.766 0 0 0 -0.0801,-0.216008 29.766,29.766 0 0 0 -0.54002,-1.129649 29.766,29.766 0 0 0 -0.65009,-1.339972 29.766,29.766 0 0 0 -0.0997,-0.205156 29.766,29.766 0 0 0 -1.30018,-2.154912 A 29.766,29.766 0 0 0 91.867093,3.306649 Z M 63.845806,43.057777 h 0.0098 a 29.766,29.766 0 0 0 0.510046,1.390099 29.766,29.766 0 0 1 -0.510046,-1.380281 29.766,29.766 0 0 1 -0.0098,-0.0098 z"
     id="path7941"
     inkscape:connector-curvature="0" />
</svg>
