<?xml version="1.0" encoding="UTF-8" standalone="no"?>
<svg id="svg7943" xmlns:rdf="http://www.w3.org/1999/02/22-rdf-syntax-ns#" xmlns="http://www.w3.org/2000/svg" height="225" width="412.5" version="1.1" xmlns:cc="http://creativecommons.org/ns#" xmlns:dc="http://purl.org/dc/elements/1.1/" viewBox="0 0 109.14081 59.531371">
 <metadata id="metadata7949">
  <rdf:RDF>
   <cc:Work rdf:about="">
    <dc:format>image/svg+xml</dc:format>
    <dc:type rdf:resource="http://purl.org/dc/dcmitype/StillImage"/>
   </cc:Work>
  </rdf:RDF>
 </metadata>
 <path id="path7941" d="m300 0a112.5 112.5 0 0 0 -93.75 50.441 112.5 112.5 0 0 0 -5.79 9.782 112.5 112.5 0 0 0 -4.09 8.769 112.5 112.5 0 0 0 -0.69 1.549 112.5 112.5 0 0 0 -2.9 8.33 112.5 112.5 0 0 0 -0.81 2.418 112.5 112.5 0 0 0 -1.83 7.643 112.5 112.5 0 0 0 -0.78 3.451 112.5 112.5 0 0 0 -0.42 3.31 112.5 112.5 0 0 0 -0.49 3.516 112.5 112.5 0 0 0 -0.91 13.261 75.001 75.001 0 0 1 -12.47 41.35 75.001 75.001 0 0 1 -4.31 5.82 75.001 75.001 0 0 1 -0.15 0.19 75.001 75.001 0 0 1 -4.68 5.19 75.001 75.001 0 0 1 -0.34 0.38 75.001 75.001 0 0 1 -4.96 4.49 75.001 75.001 0 0 1 -0.64 0.57 75.001 75.001 0 0 1 -5.03 3.73 75.001 75.001 0 0 1 -0.03 0.03 75.001 75.001 0 0 1 -0.49 0.34 75.001 75.001 0 0 1 -0.53 0.38 75.001 75.001 0 0 1 -5.05 3.02 75.001 75.001 0 0 1 -1.47 0.83 75.001 75.001 0 0 1 -5.06 2.36 75.001 75.001 0 0 1 -1.78 0.79 75.001 75.001 0 0 1 -4.88 1.71 75.001 75.001 0 0 1 -0.04 0.01 75.001 75.001 0 0 1 -1.04 0.34 75.001 75.001 0 0 1 -1.21 0.4 75.001 75.001 0 0 1 -4.63 1.12 75.001 75.001 0 0 1 -0.02 0 75.001 75.001 0 0 1 -2.72 0.6 75.001 75.001 0 0 1 -4.31 0.61 75.001 75.001 0 0 1 -0.03 0 75.001 75.001 0 0 1 -1.1 0.15 75.001 75.001 0 0 1 -2.11 0.26 75.001 75.001 0 0 1 -5.87 0.27 75.001 75.001 0 0 1 -75.096 -74.93 75.001 75.001 0 0 1 12.434 -41.273 75.001 75.001 0 0 1 0.064 -0.103l-31.256-20.692a112.5 112.5 0 0 0 -10.572 20.106 112.5 112.5 0 0 0 -2.9101 8.326 112.5 112.5 0 0 0 -0.793 2.42 112.5 112.5 0 0 0 -0.5293 2.191 112.5 112.5 0 0 0 -1.3378 5.557 112.5 112.5 0 0 0 -2.5938 23.508 112.5 112.5 0 0 0 0.5293 10.35 112.5 112.5 0 0 0 0.04492 0.87 112.5 112.5 0 0 0 0.71878 4.71 112.5 112.5 0 0 0 0 0.03 112.5 112.5 0 0 0 0.8476 5.52 112.5 112.5 0 0 0 1.3145 5.48 112.5 112.5 0 0 0 0 0.04 112.5 112.5 0 0 0 1.3906 5.41 112.5 112.5 0 0 0 1.8516 5.29 112.5 112.5 0 0 0 0.0117 0.03 112.5 112.5 0 0 0 1.9277 5.26 112.5 112.5 0 0 0 2.3693 5.09 112.5 112.5 0 0 0 2.457 5.07 112.5 112.5 0 0 0 5.291 8.92 112.5 112.5 0 0 0 93.746 50.42 112.5 112.5 0 0 0 93.75 -50.45 112.5 112.5 0 0 0 5.8 -9.78 112.5 112.5 0 0 0 4.08 -8.76 112.5 112.5 0 0 0 0.69 -1.56 112.5 112.5 0 0 0 2.91 -8.35 112.5 112.5 0 0 0 0.8 -2.42 112.5 112.5 0 0 0 1.84 -7.63 112.5 112.5 0 0 0 0.77 -3.48 112.5 112.5 0 0 0 0.45 -3.32 112.5 112.5 0 0 0 0.46 -3.56 112.5 112.5 0 0 0 0.9 -13.26 75.001 75.001 0 0 1 12.51 -41.389 75.001 75.001 0 0 1 4.31 -5.858 75.001 75.001 0 0 1 0.15 -0.226 75.001 75.001 0 0 1 4.69 -5.217 75.001 75.001 0 0 1 0.34 -0.396 75.001 75.001 0 0 1 4.95 -4.499 75.001 75.001 0 0 1 0.61 -0.55 75.001 75.001 0 0 1 5.03 -3.735 75.001 75.001 0 0 1 0.03 -0.039 75.001 75.001 0 0 1 0.49 -0.353 75.001 75.001 0 0 1 0.53 -0.379 75.001 75.001 0 0 1 5.05 -3.008 75.001 75.001 0 0 1 1.47 -0.832 75.001 75.001 0 0 1 5.07 -2.365 75.001 75.001 0 0 1 1.77 -0.795 75.001 75.001 0 0 1 4.89 -1.719 75.001 75.001 0 0 1 0.03 -0.039 75.001 75.001 0 0 1 1.02 -0.34 75.001 75.001 0 0 1 1.21 -0.389 75.001 75.001 0 0 1 4.61 -1.111 75.001 75.001 0 0 1 0.02 0 75.001 75.001 0 0 1 2.73 -0.615 75.001 75.001 0 0 1 4.3 -0.606 75.001 75.001 0 0 1 0.03 0 75.001 75.001 0 0 1 1.09 -0.144 75.001 75.001 0 0 1 2.12 -0.264 75.001 75.001 0 0 1 5.87 -0.263 75.001 75.001 0 0 1 75.06 75.101 75.001 75.001 0 0 1 -12.44 41.27 75.001 75.001 0 0 1 -0.06 0.1l31.25 20.69a112.5 112.5 0 0 0 5.78 -9.79 112.5 112.5 0 0 0 4.09 -8.77 112.5 112.5 0 0 0 0.72 -1.55 112.5 112.5 0 0 0 2.87 -8.24 112.5 112.5 0 0 0 0.83 -2.53 112.5 112.5 0 0 0 1.81 -7.6 112.5 112.5 0 0 0 0.8 -3.48 112.5 112.5 0 0 0 0.45 -3.32 112.5 112.5 0 0 0 0.49 -3.56 112.5 112.5 0 0 0 0.55 -4.48 112.5 112.5 0 0 0 0.38 -8.77 112.5 112.5 0 0 0 -0.53 -10.35 112.5 112.5 0 0 0 -0.76 -5.581 112.5 112.5 0 0 0 -0.01 -0.015 112.5 112.5 0 0 0 -0.83 -5.526 112.5 112.5 0 0 0 -0.13 -0.849 112.5 112.5 0 0 0 -1.19 -4.641 112.5 112.5 0 0 0 -1.4 -5.406 112.5 112.5 0 0 0 -1.86 -5.328 112.5 112.5 0 0 0 -1.93 -5.27 112.5 112.5 0 0 0 -0.3 -0.816 112.5 112.5 0 0 0 -2.04 -4.27 112.5 112.5 0 0 0 -2.46 -5.064 112.5 112.5 0 0 0 -0.38 -0.776 112.5 112.5 0 0 0 -4.91 -8.144 112.5 112.5 0 0 0 -93.7 -50.344h-0.02zm-105.89 150.24h0.04a112.5 112.5 0 0 0 1.93 5.25 112.5 112.5 0 0 1 -1.93 -5.21 112.5 112.5 0 0 1 -0.04 -0.04z" transform="matrix(.26458 0 0 .26458 -.00015165 0)" stroke-width="3.7795"/>
</svg>
